<svg id="Camada_1" data-name="Camada 1" xmlns="http://www.w3.org/2000/svg" viewBox="0 0 365.76 102.13"><defs><style>.cls-1{fill:#fff;}</style></defs><title>Prancheta 5</title><path class="cls-1" d="M89,28.58a20.22,20.22,0,0,0-7.66,4.87V30.36a1.9,1.9,0,0,0-1.88-1.87H73.42a1.9,1.9,0,0,0-1.88,1.87V83.79a1.91,1.91,0,0,0,1.88,1.88h6.07a1.9,1.9,0,0,0,1.88-1.88V68.44a18.93,18.93,0,0,0,4.77,3.4,20.22,20.22,0,0,0,11.53,1.89,21.48,21.48,0,0,0,16.9-13.06,1.19,1.19,0,0,0,.08-.22,2.4,2.4,0,0,0,.11-.23c3.09-7.57,2.2-17.27-2.69-23.89C106.94,29.37,97.41,25.68,89,28.58Zm16.4,16.21c1.86,4.92,1.47,11.19-1.86,15.43a12.34,12.34,0,0,1-15,3.09c-5.2-2.65-7.72-8-7.38-13.75a13.5,13.5,0,0,1,9.5-12.19A12.29,12.29,0,0,1,105.43,44.79Z"/><path class="cls-1" d="M128.5,11.68h-6.08a1.9,1.9,0,0,0-1.87,1.87V71.16a1.74,1.74,0,0,0,.5,1.27l.06.07,0,0a1.7,1.7,0,0,0,1.27.51h6.08a1.91,1.91,0,0,0,1.88-1.88V13.55A1.9,1.9,0,0,0,128.5,11.68Z"/><path class="cls-1" d="M169.91,34.48a15.82,15.82,0,0,0-7.28-5.21c-7.86-2.89-17-1.07-24.34,2.32a1.86,1.86,0,0,0-.87,2.11c.61,1.66,1.21,3.32,1.82,5A1.91,1.91,0,0,0,142,39.8a36.71,36.71,0,0,1,5.36-2c4.09-1.09,9.53-1.48,13.19,1.09,2.22,1.55,2.9,3.92,3.1,6.4a41.79,41.79,0,0,0-14.73-.91c-5.28.69-10.79,3-13.48,7.84a14.43,14.43,0,0,0,1.13,15.47c3.56,4.55,9.56,6.38,15.17,6.19a20.16,20.16,0,0,0,12-4.34v1.61A1.9,1.9,0,0,0,165.59,73h5.84a1.91,1.91,0,0,0,1.88-1.88V51.61a72,72,0,0,0-.18-8.44A17.57,17.57,0,0,0,169.91,34.48ZM145.22,62.83c-2.46-2.57-1.74-6.37.77-8.52,2.58-1.79,5.76-2,8.82-1.93a40.34,40.34,0,0,1,9,1.32,19,19,0,0,1-.14,3.93c-.67,3.7-4,6.13-7.38,7.13C152.7,65.81,148,65.7,145.22,62.83Z"/><path class="cls-1" d="M215.86,28.49h-6.47a1.94,1.94,0,0,0-1.81,1.38l-11.4,29.6q-5.64-12.93-11.27-25.85-.93-2.1-1.84-4.2a1.82,1.82,0,0,0-1.62-.93h-6.71a1.9,1.9,0,0,0-1.61,2.82l6.27,13.74,10,21.89,1.86,4.1c-.85,2-1.94,4.22-3.86,5.21-2.38,1.21-5.67.43-7.91-.71a1.91,1.91,0,0,0-2.57.67c-.68,1.61-1.36,3.21-2,4.82a1.92,1.92,0,0,0,.67,2.56c4.93,2.4,10.9,3.31,16,.92,4.63-2.16,7.13-7,9-11.51l5.79-14.23q4.6-11.35,9.22-22.7c.71-1.73,1.41-3.47,2.12-5.21A1.89,1.89,0,0,0,215.86,28.49Z"/><path class="cls-1" d="M246.79,28.25a20,20,0,0,0-12,.54,16.69,16.69,0,0,0-5.26,3.46V30.36a1.9,1.9,0,0,0-1.87-1.87h-6.08a1.9,1.9,0,0,0-1.87,1.87v40.8A1.9,1.9,0,0,0,221.54,73h6.08a1.74,1.74,0,0,0,1.27-.5l.06-.06a.08.08,0,0,1,0,0,1.74,1.74,0,0,0,.5-1.28V50.87a40.2,40.2,0,0,1,.1-4.91,10.11,10.11,0,0,1,9.62-9.05c4.41-.2,8.2,1.78,9.5,6.18a21.68,21.68,0,0,1,.55,6.17v21.9A1.9,1.9,0,0,0,251.14,73h6.07a1.9,1.9,0,0,0,1.88-1.88V51.81c0-2.57.13-5.19-.07-7.75C258.46,36.72,254.15,30.17,246.79,28.25Z"/><path class="cls-1" d="M294.55,30.88a21,21,0,0,0-23.44.62c-7.1,5.2-10.18,14.22-9.06,22.8a22.53,22.53,0,0,0,14.51,18.4,24.47,24.47,0,0,0,14.57.41,24.06,24.06,0,0,0,11.13-7.33,1.9,1.9,0,0,0,0-2.65l-3.79-3.39a1.9,1.9,0,0,0-2.65,0C292.56,63,288.75,65,284.06,65a12.34,12.34,0,0,1-10.94-7,13.93,13.93,0,0,1-1-3.06h30.1A1.93,1.93,0,0,0,304.07,53a26.42,26.42,0,0,0-2-12.84A20.5,20.5,0,0,0,294.55,30.88Zm-.66,15.76H272.13c1.24-5.3,5.1-10.12,11-10.14a10.12,10.12,0,0,1,7.69,3.32A13.76,13.76,0,0,1,293.89,46.64Z"/><path class="cls-1" d="M344.85,40.17a20.59,20.59,0,0,0-7.53-9.29,21,21,0,0,0-23.43.62c-7.1,5.2-10.19,14.22-9.07,22.8a22.53,22.53,0,0,0,14.52,18.4,24.46,24.46,0,0,0,14.57.41A24.08,24.08,0,0,0,345,65.78a1.9,1.9,0,0,0,0-2.65l-3.79-3.39a1.9,1.9,0,0,0-2.65,0C335.34,63,331.52,65,326.83,65a12.34,12.34,0,0,1-10.94-7,13.9,13.9,0,0,1-1-3.06H345A1.93,1.93,0,0,0,346.84,53,26.53,26.53,0,0,0,344.85,40.17Zm-8.18,6.47H314.9c1.24-5.3,5.1-10.12,11-10.14a10.16,10.16,0,0,1,7.7,3.32A13.85,13.85,0,0,1,336.67,46.64Z"/><path class="cls-1" d="M58.41,26.08,27.7,12.22c-2.43-1.1-6-.43-6.61,2.68q-3.25,16.71-6.52,33.4a4.53,4.53,0,0,0,1.16,4.38L53,83.91c2.88,2.42,7.68,1,7.68-3.18V30.35A3.59,3.59,0,0,0,58.41,26.08Zm-6.77,45L23.82,47.76q2.46-12.61,4.93-25.25L51.64,32.85Z"/><circle class="cls-1" cx="62.05" cy="87.81" r="2.72"/><circle class="cls-1" cx="67.16" cy="91.56" r="2.16"/><circle class="cls-1" cx="72.22" cy="92.61" r="1.79"/><circle class="cls-1" cx="76.49" cy="92.22" r="1.48"/><circle class="cls-1" cx="79.99" cy="90.86" r="1.1"/></svg>