<svg xmlns="http://www.w3.org/2000/svg" width="150" height="48" viewBox="0 0 150 48" fill="none"><g clip-path="url(#clip01111)"><path d="M73.0344 33.2338C70.0546 33.2338 67.0937 33.2338 64.1139 33.2338C63.3926 33.2338 63.3926 33.2338 63.3926 33.936C63.4116 34.7142 63.3357 35.5113 63.4875 36.2895C63.962 38.7379 65.3855 40.4271 67.72 41.2812C68.8209 41.6988 69.9786 41.8696 71.1554 41.8886C73.3191 41.8886 75.4448 41.6418 77.5706 41.2812C78.6524 41.0914 79.7153 40.8447 80.7592 40.579C81.4994 40.3892 82.2017 40.4461 82.8849 40.7877C84.0047 41.3381 84.6121 42.439 84.5362 43.7296C84.4602 44.8494 83.6251 45.9313 82.4863 46.2729C81.3286 46.6145 80.1328 46.8803 78.9371 47.108C77.4947 47.3927 76.0332 47.5825 74.5718 47.7154C73.7177 47.7913 72.8446 47.8103 71.9905 47.8672C70.2444 47.9431 68.5362 47.7344 66.866 47.2788C62.8043 46.178 59.9004 43.6916 58.2871 39.7818C57.6797 38.3014 57.395 36.764 57.395 35.1697C57.395 32.3986 57.395 29.6466 57.395 26.8755C57.395 25.5849 57.5848 24.3322 58.0024 23.1175C58.9514 20.3654 60.6975 18.2587 63.2218 16.7972C65.1008 15.7154 67.1317 15.0511 69.2954 14.8613C72.9775 14.5386 76.4318 15.2219 79.5445 17.2907C81.1767 18.3725 82.6002 19.6822 83.6821 21.3334C84.5551 22.662 85.0486 24.1424 85.2005 25.7177C85.3523 27.2551 85.2954 28.8115 85.2574 30.3488C85.2194 32.0001 83.9288 33.1578 82.2017 33.2338C81.9359 33.2527 81.6892 33.2338 81.4235 33.2338C78.6334 33.2338 75.8434 33.2338 73.0344 33.2338ZM71.3262 27.2361C71.7627 27.2361 72.1993 27.2361 72.6548 27.2361C74.6667 27.2361 76.6975 27.2361 78.7094 27.2361C79.2218 27.2361 79.2598 27.1982 79.2598 26.6857C79.2788 25.6988 78.9371 24.8257 78.3108 24.0855C77.4947 23.1175 76.5457 22.3393 75.4069 21.7699C73.9644 21.0297 72.4081 20.745 70.7948 20.764C69.1056 20.783 67.5492 21.1816 66.1068 22.0357C64.3796 23.0606 63.4875 24.5979 63.4116 26.6098C63.3926 27.1982 63.4306 27.2361 64 27.2361C64.0759 27.2361 64.1518 27.2361 64.2278 27.2361C66.6002 27.2361 68.9727 27.2361 71.3262 27.2361Z" fill="#0D5D97"/><path d="M138.894 20.6501C138.705 20.5742 138.515 20.6121 138.344 20.6121C133.77 20.6121 129.215 20.6121 124.641 20.6121C123.369 20.6121 122.458 20.0048 121.945 18.866C121.167 17.1958 122.116 15.1649 124.014 14.7474C124.299 14.6904 124.584 14.6525 124.868 14.6525C131.492 14.6525 138.135 14.6525 144.759 14.6525C146.41 14.6525 147.625 15.6394 147.891 17.1958C148.043 18.0309 147.815 18.7901 147.303 19.4733C145.708 21.5991 144.133 23.7248 142.539 25.8506C138.667 31.0321 134.776 36.1946 130.904 41.3761C130.809 41.5089 130.581 41.6418 130.676 41.8316C130.752 41.9645 130.98 41.8885 131.151 41.8885C136.256 41.8885 141.343 41.8885 146.448 41.8885C147.075 41.8885 147.663 41.9834 148.214 42.2871C149.314 42.8755 149.941 44.1282 149.732 45.3429C149.504 46.6525 148.517 47.6584 147.227 47.8292C146.923 47.8672 146.619 47.8862 146.316 47.8862C139.217 47.8862 132.119 47.8862 125.001 47.8862C124.584 47.8862 124.185 47.8672 123.786 47.7533C121.737 47.2219 120.864 44.8114 122.116 43.1032C123.805 40.8067 125.533 38.5291 127.241 36.2515C131.037 31.1649 134.852 26.0973 138.648 21.0107C138.743 20.9348 138.856 20.8399 138.894 20.6501Z" fill="#0D5D97"/><path d="M25.8885 31.4305C25.8885 27.0272 25.8885 22.6239 25.8885 18.2206C25.8885 17.8979 25.9075 17.5753 25.9644 17.2716C26.1922 15.905 27.3879 14.8611 28.7734 14.8232C29.8363 14.7852 30.6904 15.2028 31.3167 16.0569C31.5445 16.3795 31.5635 16.3795 31.962 16.2656C33.6512 15.8101 35.3784 15.5444 37.1056 15.3546C38.7568 15.1838 40.4081 15.1269 42.0593 15.1838C44.7544 15.2787 47.2218 16.0569 49.3665 17.7271C50.7331 18.8089 51.758 20.1565 52.4982 21.7508C53.0676 22.9655 53.4472 24.2182 53.618 25.5278C53.6939 26.0592 53.7509 26.5907 53.7509 27.1221C53.7509 33.0248 53.7509 38.9276 53.7509 44.8303C53.7509 45.9501 53.3333 46.8611 52.3654 47.4875C50.6192 48.6263 48.2467 47.6393 47.8292 45.6085C47.7722 45.2858 47.7533 44.9821 47.7533 44.6595C47.7533 38.8516 47.7533 33.0248 47.7533 27.217C47.7533 26.1541 47.5065 25.1482 47.051 24.1802C46.4057 22.8137 45.3428 21.9216 43.9003 21.4661C43.293 21.2763 42.6667 21.1435 42.0213 21.1245C39.5729 21.0486 37.1435 21.1624 34.7331 21.6559C33.9359 21.8078 33.1767 22.0545 32.4365 22.3582C31.9051 22.5859 31.8861 22.5859 31.8861 23.1553C31.8861 26.249 31.8861 29.3427 31.8861 32.4365C31.8861 36.5171 31.8861 40.5978 31.8861 44.6785C31.8861 45.2289 31.7912 45.7603 31.5635 46.2728C30.9181 47.6203 29.4567 48.0379 28.6026 47.924C27.1791 47.7342 26.1922 46.8232 25.9454 45.4946C25.8885 45.1909 25.8695 44.8872 25.8695 44.5836C25.8885 40.2372 25.8885 35.8339 25.8885 31.4305Z" fill="#0D5D97"/><path d="M88.446 16.9869C88.446 12.3748 88.446 7.7627 88.446 3.1506C88.446 2.23957 88.7118 1.44241 89.414 0.83506C90.363 -0.0190325 91.4638 -0.227811 92.6216 0.284645C93.7414 0.77812 94.3867 1.67017 94.4057 2.92284C94.4247 6.62391 94.4057 10.325 94.4057 14.026C94.4057 14.1779 94.4057 14.3297 94.4057 14.4816C94.4057 14.7093 94.5006 14.8232 94.7284 14.8232C94.8802 14.8232 95.032 14.8232 95.1839 14.8232C98.5813 14.8232 101.979 14.8232 105.376 14.8232C106.23 14.8232 106.951 15.0889 107.559 15.6773C109.153 17.2716 108.489 19.9667 106.325 20.631C105.964 20.7449 105.623 20.7829 105.243 20.7829C101.865 20.7829 98.4674 20.7829 95.089 20.7829C94.3867 20.7829 94.3867 20.7829 94.3867 21.4661C94.3867 24.3321 94.3677 27.198 94.3867 30.064C94.4247 33.3475 95.5825 36.2135 97.917 38.529C99.777 40.389 102.036 41.4329 104.636 41.7935C105.186 41.8695 105.756 41.8695 106.306 41.8884C107.692 41.9264 108.83 42.7805 109.21 44.1091C109.684 45.7603 108.546 47.5444 106.837 47.8291C106.097 47.943 105.357 47.8671 104.617 47.7912C102.928 47.6393 101.295 47.2597 99.7201 46.6524C97.9929 45.9881 96.4176 45.077 94.9751 43.9003C93.0012 42.287 91.4449 40.3131 90.3061 38.0355C89.3001 36.0237 88.6928 33.8789 88.503 31.6393C88.446 31.051 88.4271 30.4626 88.4271 29.8742C88.446 25.5848 88.446 21.2763 88.446 16.9869Z" fill="#0D5D97"/><path d="M117.979 31.4685C117.979 35.9288 117.979 40.389 117.979 44.8493C117.979 45.7603 117.656 46.5195 116.992 47.1079C116.081 47.905 115.018 48.1138 113.898 47.6393C112.74 47.1648 112.114 46.2728 112.038 45.0011C112.038 44.9632 112.038 44.9062 112.038 44.8683C112.038 35.9288 112.038 26.9893 112.038 18.0498C112.038 16.8161 112.626 15.905 113.727 15.3546C115.663 14.3866 117.979 15.8101 117.979 17.9738C117.998 22.491 117.979 26.9703 117.979 31.4685Z" fill="#0D5D97"/><path d="M10.6667 33.7082C13.134 33.7082 15.5824 33.7082 18.0498 33.7082C18.828 33.7082 19.5492 33.879 20.1756 34.3725C20.8968 34.9229 21.5991 36.1945 21.2005 37.4662C20.8399 38.6429 20.0807 39.3832 18.847 39.6109C18.5053 39.6679 18.1637 39.7058 17.8031 39.7058C13.0012 39.7058 8.21827 39.7058 3.41637 39.7058C3.11269 39.7058 2.80902 39.6868 2.50534 39.6299C1.04389 39.4211 0 38.2064 0 36.707C0 35.2076 1.04389 33.9929 2.52432 33.7651C2.84698 33.7272 3.15065 33.6892 3.47331 33.6892C5.86477 33.7082 8.27521 33.7082 10.6667 33.7082Z" fill="#FAA635"/><path d="M14.6145 27.7865C13.3808 27.7865 12.1471 27.7675 10.9324 27.7865C8.69277 27.8434 7.13643 25.376 8.35114 23.3262C8.90155 22.3962 9.75564 21.8648 10.8185 21.8648C13.3428 21.8268 15.8482 21.8268 18.3725 21.8648C20.0048 21.8838 21.2954 23.1744 21.3144 24.8066C21.3333 26.5338 19.8909 27.7865 18.4864 27.7865C17.1957 27.8055 15.9051 27.7865 14.6145 27.7865Z" fill="#FAA635"/><path d="M115.018 12.0333C112.702 12.1282 110.576 10.1733 110.576 7.62996C110.595 5.16258 112.493 3.18868 114.999 3.20766C117.599 3.20766 119.421 5.25748 119.421 7.64894C119.421 10.1922 117.314 12.1092 115.018 12.0333Z" fill="#0D5D97"/></g><defs><clipPath id="clip01111"><rect width="149.77" height="48" fill="white"/></clipPath></defs></svg>