<svg id="Camada_1" data-name="Camada 1" xmlns="http://www.w3.org/2000/svg" viewBox="0 0 328.74 82.72"><defs><style>.cls-1{fill:#0747d6;}</style></defs><title>Prancheta 3</title><path class="cls-1" d="M74.14,17.36a19.76,19.76,0,0,0-7.52,4.78v-3a1.86,1.86,0,0,0-1.84-1.84h-6A1.87,1.87,0,0,0,57,19.11V71.53a1.86,1.86,0,0,0,1.84,1.84h6a1.86,1.86,0,0,0,1.84-1.84V56.47a18.54,18.54,0,0,0,4.69,3.34,19.87,19.87,0,0,0,11.31,1.85A21.09,21.09,0,0,0,99.21,48.84a1.72,1.72,0,0,0,.07-.21,2.4,2.4,0,0,0,.11-.23c3-7.43,2.16-16.94-2.64-23.44C91.71,18.13,82.36,14.51,74.14,17.36Zm16.09,15.9c1.83,4.83,1.45,11-1.82,15.15a12.12,12.12,0,0,1-14.74,3c-5.1-2.6-7.58-7.89-7.24-13.49a13.22,13.22,0,0,1,9.32-12A12,12,0,0,1,90.23,33.26Z"/><path class="cls-1" d="M112.87.77h-6a1.87,1.87,0,0,0-1.84,1.84V59.14a1.7,1.7,0,0,0,.49,1.25l.06.06,0,0a1.67,1.67,0,0,0,1.25.5h6a1.86,1.86,0,0,0,1.84-1.84V2.61A1.87,1.87,0,0,0,112.87.77Z"/><path class="cls-1" d="M153.5,23.15A15.61,15.61,0,0,0,146.36,18c-7.72-2.84-16.65-1-23.89,2.28a1.83,1.83,0,0,0-.84,2.07q.89,2.45,1.78,4.88a1.87,1.87,0,0,0,2.7,1.1,36.32,36.32,0,0,1,5.25-1.94c4-1.08,9.36-1.46,12.95,1.06,2.18,1.53,2.84,3.85,3,6.28a41.19,41.19,0,0,0-14.46-.89c-5.17.68-10.58,2.91-13.22,7.69a14.16,14.16,0,0,0,1.11,15.18c3.49,4.47,9.38,6.26,14.88,6.08a19.75,19.75,0,0,0,11.77-4.26v1.58A1.86,1.86,0,0,0,149.27,61H155a1.86,1.86,0,0,0,1.84-1.84V40a69.27,69.27,0,0,0-.17-8.28A17.13,17.13,0,0,0,153.5,23.15ZM129.28,51c-2.42-2.51-1.71-6.25.75-8.36,2.53-1.75,5.65-2,8.65-1.89A40.07,40.07,0,0,1,147.53,42a19.13,19.13,0,0,1-.14,3.87c-.66,3.62-3.89,6-7.25,7C136.61,53.89,132,53.78,129.28,51Z"/><path class="cls-1" d="M198.59,17.27h-6.35a1.89,1.89,0,0,0-1.77,1.35L179.28,47.67Q173.75,35,168.22,22.31l-1.8-4.13a1.81,1.81,0,0,0-1.59-.91h-6.58A1.87,1.87,0,0,0,156.66,20l6.15,13.48q4.91,10.74,9.8,21.48c.61,1.34,1.22,2.68,1.84,4-.84,1.95-1.91,4.14-3.8,5.11-2.33,1.19-5.56.42-7.76-.69a1.84,1.84,0,0,0-2.51.66c-.68,1.57-1.35,3.15-2,4.72a1.89,1.89,0,0,0,.66,2.52c4.83,2.35,10.7,3.25,15.71.9,4.54-2.12,7-6.89,8.83-11.29q2.83-7,5.68-14,4.51-11.13,9-22.27c.69-1.7,1.38-3.41,2.08-5.11A1.86,1.86,0,0,0,198.59,17.27Z"/><path class="cls-1" d="M228.94,17a19.6,19.6,0,0,0-11.81.53A16.42,16.42,0,0,0,212,21V19.11a1.86,1.86,0,0,0-1.84-1.84h-6a1.86,1.86,0,0,0-1.84,1.84v40A1.86,1.86,0,0,0,204.17,61h6a1.66,1.66,0,0,0,1.24-.49l.07-.06,0,0a1.71,1.71,0,0,0,.5-1.26V39.23a36.94,36.94,0,0,1,.1-4.82,9.92,9.92,0,0,1,9.43-8.88c4.33-.19,8.05,1.75,9.32,6.06a21.3,21.3,0,0,1,.54,6.06V59.14A1.87,1.87,0,0,0,233.2,61h6A1.87,1.87,0,0,0,241,59.14v-19c0-2.53.13-5.1-.07-7.62C240.39,25.35,236.17,18.91,228.94,17Z"/><path class="cls-1" d="M275.8,19.61a20.62,20.62,0,0,0-23,.61c-7,5.1-10,14-8.9,22.37a22.11,22.11,0,0,0,14.24,18.06,24.06,24.06,0,0,0,14.3.41,23.72,23.72,0,0,0,10.92-7.2,1.87,1.87,0,0,0,0-2.6l-3.72-3.33a1.87,1.87,0,0,0-2.6,0c-3.19,3.23-6.94,5.18-11.54,5.11a12.09,12.09,0,0,1-10.74-6.87,13.54,13.54,0,0,1-1-3h29.53a1.9,1.9,0,0,0,1.84-1.84,26,26,0,0,0-2-12.6A20.25,20.25,0,0,0,275.8,19.61Zm-.64,15.47H253.8c1.22-5.2,5-9.93,10.77-9.95a10,10,0,0,1,7.55,3.26A13.46,13.46,0,0,1,275.16,35.08Z"/><path class="cls-1" d="M325.16,28.73a20.25,20.25,0,0,0-7.39-9.12,20.62,20.62,0,0,0-23,.61c-7,5.1-10,14-8.9,22.37a22.11,22.11,0,0,0,14.24,18.06,24.06,24.06,0,0,0,14.3.41,23.72,23.72,0,0,0,10.92-7.2,1.87,1.87,0,0,0,0-2.6l-3.72-3.33a1.87,1.87,0,0,0-2.6,0c-3.19,3.23-6.94,5.18-11.54,5.11a12.09,12.09,0,0,1-10.74-6.87,13.54,13.54,0,0,1-1-3h29.53a1.9,1.9,0,0,0,1.84-1.84A26,26,0,0,0,325.16,28.73Zm-8,6.35H295.77c1.22-5.2,5-9.93,10.77-9.95a10,10,0,0,1,7.55,3.26A13.46,13.46,0,0,1,317.13,35.08Z"/><path class="cls-1" d="M44.1,14.91,14,1.3C11.58.23,8.07.88,7.47,3.94L1.08,36.71A4.43,4.43,0,0,0,2.21,41L38.75,71.65c2.82,2.37,7.53.94,7.53-3.12V19.1A3.51,3.51,0,0,0,44.1,14.91ZM37.45,59.08l-27.3-22.9Q12.58,23.79,15,11.4L37.45,21.55Z"/><circle class="cls-1" cx="47.67" cy="75.48" r="2.67"/><circle class="cls-1" cx="52.68" cy="79.15" r="2.12"/><circle class="cls-1" cx="57.64" cy="80.18" r="1.76"/><circle class="cls-1" cx="61.83" cy="79.81" r="1.45"/><circle class="cls-1" cx="65.27" cy="78.47" r="1.08"/></svg>