<svg id="Layer_1" data-name="Layer 1" xmlns="http://www.w3.org/2000/svg" viewBox="0 0 109.55 163.96"><defs><style>.cls-1{fill:#d2e3ed;}.cls-2{fill:#162b4d;}</style></defs><title>ICONE NETIZ</title><path class="cls-1" d="M57.89,2.89a13,13,0,0,0-9.38,6.34l-45,92.27c-2.93,4.87.31,11.29,5.73,11.35L57.89,84.32Z" transform="translate(-2.4 -2.85)"/><path class="cls-2" d="M61.76,2.85a13,13,0,0,1,9.38,6.34l39.71,86.64c2.92,4.87-.32,11.28-5.74,11.35L62.33,80Z" transform="translate(-2.4 -2.85)"/><path class="cls-1" d="M50.92,155a2.43,2.43,0,0,1-2.43-2.43V115.4a2.43,2.43,0,0,1,4.86,0v37.15A2.43,2.43,0,0,1,50.92,155" transform="translate(-2.4 -2.85)"/><path class="cls-1" d="M61.66,166.81a2.42,2.42,0,0,1-2.43-2.42V127.24a2.43,2.43,0,1,1,4.85,0v37.15a2.42,2.42,0,0,1-2.42,2.42" transform="translate(-2.4 -2.85)"/><path class="cls-1" d="M73.86,146.48a2.43,2.43,0,0,1-2.43-2.43V106.9a2.43,2.43,0,0,1,4.85,0v37.15a2.42,2.42,0,0,1-2.42,2.43" transform="translate(-2.4 -2.85)"/></svg>